<svg xmlns="http://www.w3.org/2000/svg" width="18" height="18"><g fill="none" fill-rule="evenodd"><path d="M-3-3h24v24H-3z"/><path fill="#CA2621" d="M12.728 0L18 5.272v7.456L12.728 18H5.272L0 12.728V5.272L5.272 0h7.456zm-2.314 9l3.466-3.466-1.414-1.414L9 7.586 5.536 4.122 4.122 5.536 7.586 9 4.12 12.466l1.414 1.414L9 10.414l3.464 3.464 1.414-1.414L10.414 9z"/><path fill="#FFF" d="M10.414 9l3.464 3.464-1.414 1.414L9 10.414 5.534 13.88 4.12 12.466 7.586 9 4.122 5.536l1.414-1.414L9 7.586l3.466-3.466 1.414 1.414z"/></g></svg>